<?xml version="1.0" encoding="UTF-8"?>
<svg version="1.1" xmlns="http://www.w3.org/2000/svg" width="980" height="922">
<path d="M0 0 C1.67616085 1.50198149 3.33875103 3.01930958 4.984375 4.5546875 C6.88829605 6.32506013 8.83516151 7.98807643 10.84375 9.63671875 C14.70605 12.93576666 17.88009298 16.70523332 21.15625 20.57421875 C22.00832031 21.5384375 22.86039063 22.50265625 23.73828125 23.49609375 C41.67975876 43.86749878 56.89082015 66.54062374 71.85571289 89.13793945 C80.15245969 101.63464052 88.85725658 113.80373206 98.15625 125.57421875 C98.87039063 126.49460937 99.58453125 127.415 100.3203125 128.36328125 C113.24163376 144.66763934 127.28785846 155.61839175 145.6796875 165.15625 C146.67897278 165.67589325 147.67825806 166.1955365 148.70782471 166.73092651 C159.6823495 172.40821377 170.78658095 177.81349939 181.90625 183.19921875 C193.23409888 188.68703875 204.55154513 194.17972268 215.69921875 200.02734375 C216.4609137 200.42587555 217.22260864 200.82440735 218.00738525 201.23501587 C240.24761376 213.01346942 259.35730556 229.42908381 268.15625 253.57421875 C276.40085749 280.76756698 273.74931283 313.03631609 260.33740234 338.25219727 C246.65140091 362.48684404 223.95764335 378.29068317 197.55078125 385.9375 C185.26041159 389.30825063 172.81149535 391.19745763 160.15625 392.57421875 C159.29370605 392.66993164 158.43116211 392.76564453 157.54248047 392.86425781 C112.2243999 397.47287618 66.18803248 387.64961625 21.71484375 380.15625 C20.52332199 379.95584106 19.33180023 379.75543213 18.10417175 379.5489502 C12.4012958 378.58827549 6.70014216 377.61901591 1.00170898 376.63232422 C-21.23055725 372.81638043 -43.25693381 369.970215 -65.84375 370.13671875 C-66.79197632 370.14108948 -67.74020264 370.14546021 -68.71716309 370.14996338 C-84.08308704 370.24732996 -98.82107392 371.12591642 -113.84375 374.57421875 C-114.86233093 374.80751892 -114.86233093 374.80751892 -115.90148926 375.04553223 C-135.38419436 379.53438039 -154.6648186 384.77333661 -173.93191528 390.09988403 C-227.38097736 404.85967248 -288.79975977 416.08124784 -339.90234375 387.88671875 C-365.83843422 371.99396544 -383.7672283 347.00380988 -392.07421875 317.8515625 C-399.66231968 285.53472654 -394.7879569 251.54991609 -377.65234375 223.30859375 C-370.63359741 212.6970982 -361.72352596 203.38830861 -352.78125 194.38671875 C-352.31106445 193.91186035 -351.84087891 193.43700195 -351.35644531 192.94775391 C-344.80425569 186.42479505 -337.67832137 180.55242375 -330.53125 174.69921875 C-329.4160498 173.78305786 -329.4160498 173.78305786 -328.27832031 172.84838867 C-324.22389063 169.51909506 -320.16046135 166.20099893 -316.09375 162.88671875 C-306.46843776 155.0141189 -297.02032051 146.96742348 -287.84375 138.57421875 C-286.895 137.71828125 -285.94625 136.86234375 -284.96875 135.98046875 C-278.29933934 129.93095089 -271.84642012 123.68036032 -265.46875 117.32421875 C-264.71980469 116.57986572 -263.97085938 115.8355127 -263.19921875 115.06860352 C-259.1472773 111.00537658 -255.27277646 106.85055374 -251.52783203 102.50341797 C-248.76485321 99.33828914 -245.8585887 96.31054927 -242.96875 93.26171875 C-238.09894644 88.08871676 -233.48596095 82.80426029 -229.05078125 77.25 C-226.1408611 73.72204371 -223.03477118 70.39052224 -219.92016602 67.04516602 C-217.00962133 63.8998755 -214.26288178 60.67568496 -211.59375 57.32421875 C-206.52751077 51.02786748 -200.96830884 45.22532134 -195.4140625 39.36328125 C-192.62609525 36.41840913 -189.90267822 33.42718357 -187.21875 30.38671875 C-178.45624087 20.60301494 -169.1770556 11.69213799 -158.84375 3.57421875 C-158.03550781 2.89875 -157.22726562 2.22328125 -156.39453125 1.52734375 C-112.36901964 -35.05424077 -44.22018507 -37.72078974 0 0 Z M-165.84375 66.57421875 C-166.84870956 67.65890025 -167.85661831 68.74085543 -168.8671875 69.8203125 C-174.35358289 75.68168358 -179.60309745 81.63008471 -184.6328125 87.89453125 C-186.9530995 90.7067519 -189.37446134 93.39219138 -191.84375 96.07421875 C-195.11793423 99.63092119 -198.25017433 103.24583686 -201.28125 107.01171875 C-205.35213106 112.0552882 -209.65512181 116.81465546 -214.0703125 121.5546875 C-216.16871565 123.81662745 -218.20624342 126.12460066 -220.23046875 128.453125 C-223.74830609 132.48955657 -227.36498523 136.42254578 -231.03125 140.32421875 C-231.67908447 141.01378662 -232.32691895 141.70335449 -232.99438477 142.41381836 C-240.63246387 150.51106306 -248.31235524 158.58623396 -256.796875 165.80859375 C-259.30089849 167.96855295 -261.72372698 170.20909868 -264.15625 172.44921875 C-268.61547225 176.51642147 -273.19970507 180.3694692 -277.89453125 184.16015625 C-281.2574347 186.91283748 -284.55304569 189.73603644 -287.84375 192.57421875 C-291.96826706 196.1289342 -296.11583505 199.64214661 -300.34375 203.07421875 C-302.17827078 204.57276625 -304.01155098 206.07283344 -305.84375 207.57421875 C-306.34777344 207.98510742 -306.85179687 208.39599609 -307.37109375 208.81933594 C-322.63977437 221.33480092 -338.59159065 234.8655403 -347.84375 252.57421875 C-348.27558594 253.38246094 -348.70742188 254.19070313 -349.15234375 255.0234375 C-357.37693199 272.76806194 -356.75134445 295.58178737 -350.77734375 313.83203125 C-349.59268831 316.82690275 -348.27915201 319.6915845 -346.84375 322.57421875 C-346.37453125 323.54746094 -345.9053125 324.52070312 -345.421875 325.5234375 C-338.82473088 338.01555447 -328.26576625 347.95279159 -315.84375 354.57421875 C-314.99683594 355.03183594 -314.14992188 355.48945312 -313.27734375 355.9609375 C-264.49694435 380.16939205 -200.5130108 355.86486029 -152.0546875 342.41796875 C-141.7065588 339.55565611 -131.36563091 336.9133393 -120.84375 334.76171875 C-119.90112305 334.56650635 -118.95849609 334.37129395 -117.98730469 334.17016602 C-102.07679162 331.06242955 -86.21180212 330.16231186 -70.03125 330.19921875 C-68.60353271 330.20053299 -68.60353271 330.20053299 -67.14697266 330.20187378 C-32.91079501 330.30457947 0.46589567 335.98539988 34.15625 341.57421875 C123.73997363 359.40546036 123.73997363 359.40546036 208.97265625 336.73046875 C222.60026044 326.57738349 229.01863199 311.79186413 231.4921875 295.33984375 C231.77985706 293.0851364 231.98952116 290.84093706 232.15625 288.57421875 C232.21039062 287.88972656 232.26453125 287.20523437 232.3203125 286.5 C232.84326106 273.64021962 228.8773134 260.68791577 220.28125 251.01171875 C198.17187845 230.89503734 164.9719893 219.39180631 138.3046875 206.16796875 C135.19277401 204.62363877 132.08627988 203.06917359 128.98681641 201.5 C127.68850277 200.84339753 126.38852357 200.19008374 125.08740234 199.5390625 C114.77415241 194.35806456 105.25544482 188.68847471 96.15625 181.57421875 C95.60485352 181.14383301 95.05345703 180.71344727 94.48535156 180.27001953 C67.24788756 158.72766164 49.03365237 127.83567544 29.73193359 99.48193359 C15.99247189 79.30895311 1.92886602 59.37854226 -14.84375 41.57421875 C-16.08318359 40.22070312 -16.08318359 40.22070312 -17.34765625 38.83984375 C-33.06047 22.28077947 -53.50703013 13.25729071 -76.34375 12.19921875 C-114.50666275 13.96397772 -141.61265699 39.44826065 -165.84375 66.57421875 Z " fill="#070707" transform="translate(550.84375,517.42578125)"/>
<path d="M0 0 C34.78182357 29.47720231 54.12526832 73.94408866 58.00561523 118.91967773 C63.13057834 188.47996564 48.21996838 268.05348522 1.67749023 322.48999023 C-5.53633126 330.67954642 -13.42667826 337.59615733 -22.30688477 343.91967773 C-22.86456543 344.32025391 -23.42224609 344.72083008 -23.99682617 345.13354492 C-47.89017679 362.04783398 -77.35845753 370.22806938 -106.55297852 366.45874023 C-125.47243022 363.05524099 -140.49200704 354.15615478 -154.30688477 340.91967773 C-155.11770508 340.18362305 -155.92852539 339.44756836 -156.76391602 338.68920898 C-201.73069951 296.41335112 -214.24898574 218.11932259 -216.43261719 159.54711914 C-217.58327108 108.51906726 -202.30518847 58.82777557 -167.22485352 20.65405273 C-165.61484749 19.04053907 -163.97525094 17.47237052 -162.30688477 15.91967773 C-161.54375977 15.13592773 -160.78063477 14.35217773 -159.99438477 13.54467773 C-116.41661344 -29.01965705 -48.81172139 -40.46882777 0 0 Z M-103.30688477 22.91967773 C-104.30461914 23.35022461 -105.30235352 23.78077148 -106.33032227 24.22436523 C-135.82632686 37.92723351 -156.34661188 67.73278427 -167.2722168 97.56005859 C-186.83127793 154.62690234 -173.51046648 226.56279148 -148.36938477 279.98217773 C-147.89154541 281.00529053 -147.41370605 282.02840332 -146.92138672 283.08251953 C-138.00316214 301.46241599 -123.8421489 318.64856505 -104.30688477 325.91967773 C-90.23918863 330.42596233 -72.15101038 325.26901834 -59.19750977 319.44702148 C-24.22411608 300.96783644 -4.65972508 263.25471843 6.69311523 226.91967773 C6.92869141 226.1662207 7.16426758 225.41276367 7.40698242 224.63647461 C23.3784202 172.55272745 25.25135559 112.19506796 -0.28344727 63.06030273 C-11.86173598 41.53959934 -30.10780234 23.40092586 -53.76000977 16.16967773 C-70.76566727 12.11534879 -87.63233703 16.11311234 -103.30688477 22.91967773 Z " fill="#070707" transform="translate(725.306884765625,25.080322265625)"/>
<path d="M0 0 C29.48288776 -0.65426658 52.62079966 9.3297832 73.88842773 29.35888672 C102.90341474 57.65622212 121.83899271 102.66104555 122.46922302 143.17599487 C122.4768013 144.03572906 122.48437958 144.89546326 122.4921875 145.78125 C122.50687828 147.16571823 122.50687828 147.16571823 122.52186584 148.57815552 C123.08076723 215.32009315 118.21898058 296.61906669 69.25390625 347.125 C52.45238542 363.98874868 29.72994094 372.75718154 6.12890625 373.3125 C-17.14793968 372.98830995 -39.37585627 364.68583774 -56.74609375 349.125 C-57.95265625 348.09632813 -57.95265625 348.09632813 -59.18359375 347.046875 C-100.97393843 310.74151306 -124.94789685 250.95534398 -131.74609375 197.125 C-131.87757813 196.13628906 -132.0090625 195.14757812 -132.14453125 194.12890625 C-137.70576722 142.34929026 -122.7686391 87.49570524 -90.49609375 46.625 C-81.10931803 35.44871765 -70.99152355 26.0680792 -58.74609375 18.125 C-57.78316406 17.48949219 -56.82023437 16.85398437 -55.828125 16.19921875 C-38.78771301 5.59890729 -19.89916953 0.90579435 0 0 Z M-50.74609375 63.125 C-51.36097656 63.65480469 -51.97585938 64.18460938 -52.609375 64.73046875 C-71.264333 82.04974956 -81.2674538 107.1586999 -87.49609375 131.25 C-87.69501221 132.0123999 -87.89393066 132.7747998 -88.09887695 133.56030273 C-91.22312585 146.31061582 -92.09827855 159.00905643 -92.06176758 172.07592773 C-92.05860996 174.42544171 -92.08217576 176.7736872 -92.10742188 179.12304688 C-92.17113261 194.04371089 -89.99178863 208.38938111 -85.68359375 222.6875 C-85.38831787 223.68072266 -85.09304199 224.67394531 -84.78881836 225.69726562 C-75.74652248 255.17528864 -62.48178471 282.39142852 -42.74609375 306.125 C-42.04613281 306.97964844 -41.34617187 307.83429688 -40.625 308.71484375 C-30.16639355 321.02527589 -16.1283511 330.51363042 0.25390625 332.125 C15.24227828 333.13545205 28.29386477 329.14557752 39.8347168 319.48779297 C73.82639357 289.48913056 78.54689537 231.02097227 81.25390625 189.125 C81.70449614 181.79506976 82.03391058 174.4653784 82.25390625 167.125 C82.27727051 166.38620605 82.30063477 165.64741211 82.32470703 164.88623047 C83.39155007 126.16610354 73.79899175 89.620827 47.11328125 60.66796875 C36.04788196 49.02165662 24.32073571 40.91142955 7.87890625 39.921875 C-15.19156928 39.62354989 -33.56874446 48.13143775 -50.74609375 63.125 Z " fill="#070707" transform="translate(347.74609375,-0.125)"/>
<path d="M0 0 C4.40424426 3.26595534 8.2014526 7.06056496 12 11 C12.87269531 11.86496094 13.74539063 12.72992188 14.64453125 13.62109375 C39.17316125 38.97864827 49.87271926 78.9307776 50.23828125 113.41796875 C50.2480751 114.18930145 50.25786896 114.96063416 50.26795959 115.75534058 C50.4375454 132.56428012 50.26651548 148.63031188 46 165 C45.68651611 166.27786377 45.68651611 166.27786377 45.36669922 167.58154297 C30.84475892 226.24583064 -6.73392424 291.60994319 -59.3046875 323.87109375 C-84.69446516 338.84296966 -113.74008931 345.64715582 -142.81542969 338.59082031 C-160.22955094 333.88114514 -175.56666821 326.14547549 -189 314 C-189.91523437 313.17886719 -190.83046875 312.35773438 -191.7734375 311.51171875 C-212.07612947 292.31799735 -222.59751966 265.06709183 -224.20703125 237.44726562 C-224.30282109 233.83718616 -224.32919138 230.23629832 -224.3125 226.625 C-224.30686035 225.32425537 -224.3012207 224.02351074 -224.29541016 222.68334961 C-223.53585521 161.20076047 -192.34226091 101.76352287 -154 55 C-153.57444824 54.47970215 -153.14889648 53.9594043 -152.71044922 53.42333984 C-117.1904468 10.18553886 -56.78177531 -36.88853239 0 0 Z M-104 60 C-104.80308594 60.76183594 -105.60617187 61.52367187 -106.43359375 62.30859375 C-112.11439705 67.83187044 -117.08340075 73.79552713 -122 80 C-122.86243073 81.06058801 -123.7257393 82.12046269 -124.58984375 83.1796875 C-136.1638266 97.48423338 -145.99952569 112.97058384 -155 129 C-155.38784668 129.68916504 -155.77569336 130.37833008 -156.17529297 131.08837891 C-175.32651301 165.41603746 -192.44393865 210.61829167 -181.97460938 250.23828125 C-176.56681752 268.09657064 -165.90343125 283.56362618 -149.5703125 292.9765625 C-139.161801 298.50656378 -130.33491072 300.35132596 -118.625 300.3125 C-117.17867187 300.33666992 -117.17867187 300.33666992 -115.703125 300.36132812 C-94.04470442 300.37584449 -74.52050826 287.09333508 -59 273 C-46.97680354 260.97680354 -37.12102412 247.30266114 -28 233 C-27.63052246 232.42088867 -27.26104492 231.84177734 -26.88037109 231.24511719 C-5.49859741 197.39144228 9.21375607 162.39773537 9.25 122.0625 C9.25100708 121.28442993 9.25201416 120.50635986 9.25305176 119.70471191 C9.24271188 107.8874437 8.69622174 96.54901016 6 85 C5.58234375 83.06833984 5.58234375 83.06833984 5.15625 81.09765625 C0.47000827 61.5245173 -8.59008785 43.16680132 -26 32 C-55.88001303 17.48044395 -83.52627394 40.44773559 -104 60 Z " fill="#070707" transform="translate(930,326)"/>
<path d="M0 0 C6.63128261 4.88459895 12.63850863 10.41848261 18.5625 16.125 C19.24441406 16.74375 19.92632812 17.3625 20.62890625 18 C49.75211358 45.23840686 65.25059173 86.04274113 67.5625 125.125 C69.53219627 185.02745549 56.2458828 254.45131172 13.89453125 299.6953125 C13.12496094 300.49710938 12.35539063 301.29890625 11.5625 302.125 C10.72074219 303.02992188 9.87898437 303.93484375 9.01171875 304.8671875 C-7.69199202 322.3202688 -29.8933907 334.02818924 -54.2421875 335.328125 C-86.22684509 335.93982128 -111.09191951 323.07302273 -133.9855957 301.56860352 C-161.05633102 275.40221233 -177.84991157 237.55746825 -185.4375 201.125 C-185.61780762 200.27413818 -185.79811523 199.42327637 -185.98388672 198.54663086 C-186.62330762 193.72344251 -186.62040935 188.94665196 -186.640625 184.0859375 C-186.64632507 183.00986237 -186.65202515 181.93378723 -186.65789795 180.82510376 C-186.66733184 178.5438942 -186.67387552 176.26267111 -186.67773438 173.98144531 C-186.68733089 170.56028904 -186.71832396 167.13976264 -186.75 163.71875 C-186.83614099 146.18001391 -185.54964748 129.28285868 -180.375 112.4375 C-180.07754883 111.44967529 -179.78009766 110.46185059 -179.47363281 109.4440918 C-167.11081913 69.59755095 -145.56485131 28.60299505 -111.4375 3.125 C-109.90996094 1.98417969 -109.90996094 1.98417969 -108.3515625 0.8203125 C-74.40137071 -23.5942322 -34.48299193 -24.46179641 0 0 Z M-97.875 45.1875 C-104.57674815 51.90495231 -110.18117813 59.2405172 -115.4375 67.125 C-115.82357422 67.70411133 -116.20964844 68.28322266 -116.60742188 68.87988281 C-140.89686428 105.98758382 -153.78643357 153.81184109 -144.8125 198 C-137.54376059 230.30913833 -118.72911829 266.7874673 -90.3125 285.125 C-77.14738261 293.28633517 -63.90408175 296.78926576 -48.4375 294.125 C-24.66891973 286.96578907 -8.6597088 266.34524487 2.828125 245.44921875 C24.77557633 203.7631101 36.39818163 145.17199884 22.25415039 99.28588867 C13.03044952 70.71316354 -4.20813042 42.71296492 -31.4375 28.375 C-57.98367652 15.8243971 -78.12172752 25.9422018 -97.875 45.1875 Z " fill="#070707" transform="translate(186.4375,331.875)"/>
<path d="M0 0 C0.66 0.33 1.32 0.66 2 1 C-8.89 11.89 -19.78 22.78 -31 34 C-31.66 33.67 -32.32 33.34 -33 33 C-11.13829787 9.35106383 -11.13829787 9.35106383 0 0 Z " fill="#626262" transform="translate(389,523)"/>
<path d="M0 0 C0.66 0.33 1.32 0.66 2 1 C-8.56 11.56 -19.12 22.12 -30 33 C-30.66 32.67 -31.32 32.34 -32 32 C-22.128721 21.16398867 -12.18488317 10.51014131 -1 1 C-0.67 0.67 -0.34 0.34 0 0 Z " fill="#5E5E5E" transform="translate(213,698)"/>
<path d="M0 0 C0.66 0.33 1.32 0.66 2 1 C-5.92 8.92 -13.84 16.84 -22 25 C-22.66 24.67 -23.32 24.34 -24 24 C-7 5.25 -7 5.25 0 0 Z " fill="#5B5B5B" transform="translate(280,24)"/>
<path d="M0 0 C0.66 0.33 1.32 0.66 2 1 C-5.92 8.92 -13.84 16.84 -22 25 C-22.66 24.67 -23.32 24.34 -24 24 C-16.39173545 15.51489645 -8.5364267 7.55261866 0 0 Z " fill="#6B6B6B" transform="translate(811,344)"/>
<path d="M0 0 C0.66 0.33 1.32 0.66 2 1 C-3.94 6.94 -9.88 12.88 -16 19 C-16.66 18.67 -17.32 18.34 -18 18 C-12.31481712 11.5575694 -6.66474693 5.45466718 0 0 Z " fill="#6F6F6F" transform="translate(72,337)"/>
</svg>
