<?xml version="1.0" encoding="UTF-8"?>
<svg version="1.1" xmlns="http://www.w3.org/2000/svg" width="600" height="600">
<path d="M0 0 C0.9583374 0.00523682 1.9166748 0.01047363 2.90405273 0.01586914 C4.45576172 0.02070313 4.45576172 0.02070313 6.03881836 0.02563477 C7.12743164 0.03401367 8.21604492 0.04239258 9.33764648 0.05102539 C10.97636719 0.05779297 10.97636719 0.05779297 12.64819336 0.06469727 C15.35723144 0.07652713 18.06616248 0.09300996 20.77514648 0.11352539 C20.77514648 2.75352539 20.77514648 5.39352539 20.77514648 8.11352539 C23.41514648 7.78352539 26.05514648 7.45352539 28.77514648 7.11352539 C30.25346908 10.07017058 29.83547431 12.85582276 29.77514648 16.11352539 C31.75514648 15.45352539 33.73514648 14.79352539 35.77514648 14.11352539 C36.10514648 12.13352539 36.43514648 10.15352539 36.77514648 8.11352539 C39.41514648 8.11352539 42.05514648 8.11352539 44.77514648 8.11352539 C44.77514648 5.47352539 44.77514648 2.83352539 44.77514648 0.11352539 C50.31103182 0.08887764 55.84688548 0.07069044 61.3828125 0.05859375 C63.26758378 0.05355295 65.15235113 0.04672041 67.03710938 0.03808594 C69.74016284 0.02600922 72.44316479 0.02029471 75.14624023 0.01586914 C76.4181144 0.00812721 76.4181144 0.00812721 77.71568298 0.00022888 C79.73585717 0.00003344 81.75592582 0.05146328 83.77514648 0.11352539 C84.77514648 1.11352539 84.77514648 1.11352539 84.83764648 4.67602539 C84.81702148 5.81040039 84.79639648 6.94477539 84.77514648 8.11352539 C87.08514648 8.11352539 89.39514648 8.11352539 91.77514648 8.11352539 C91.77514648 10.75352539 91.77514648 13.39352539 91.77514648 16.11352539 C94.41514648 16.11352539 97.05514648 16.11352539 99.77514648 16.11352539 C99.77514648 18.42352539 99.77514648 20.73352539 99.77514648 23.11352539 C100.88889648 23.07227539 102.00264648 23.03102539 103.15014648 22.98852539 C106.77514648 23.11352539 106.77514648 23.11352539 108.77514648 25.11352539 C108.40014648 27.73852539 108.40014648 27.73852539 107.77514648 30.11352539 C110.08514648 30.77352539 112.39514648 31.43352539 114.77514648 32.11352539 C114.77514648 42.34352539 114.77514648 52.57352539 114.77514648 63.11352539 C117.41514648 63.11352539 120.05514648 63.11352539 122.77514648 63.11352539 C122.77514648 65.75352539 122.77514648 68.39352539 122.77514648 71.11352539 C125.41514648 70.78352539 128.05514648 70.45352539 130.77514648 70.11352539 C132.25346908 73.07017058 131.83547431 75.85582276 131.77514648 79.11352539 C134.08514648 79.11352539 136.39514648 79.11352539 138.77514648 79.11352539 C138.77514648 84.39352539 138.77514648 89.67352539 138.77514648 95.11352539 C141.74514648 95.11352539 144.71514648 95.11352539 147.77514648 95.11352539 C147.44514648 105.67352539 147.11514648 116.23352539 146.77514648 127.11352539 C144.13514648 127.11352539 141.49514648 127.11352539 138.77514648 127.11352539 C138.77514648 132.06352539 138.77514648 137.01352539 138.77514648 142.11352539 C136.46514648 142.11352539 134.15514648 142.11352539 131.77514648 142.11352539 C131.77514648 144.75352539 131.77514648 147.39352539 131.77514648 150.11352539 C134.08514648 150.11352539 136.39514648 150.11352539 138.77514648 150.11352539 C138.77514648 158.03352539 138.77514648 165.95352539 138.77514648 174.11352539 C136.46514648 174.11352539 134.15514648 174.11352539 131.77514648 174.11352539 C131.79254883 175.32588867 131.79254883 175.32588867 131.81030273 176.56274414 C131.81932617 177.63137695 131.82834961 178.70000977 131.83764648 179.80102539 C131.84924805 180.85676758 131.86084961 181.91250977 131.87280273 183.00024414 C131.78380073 185.83762802 131.42454487 188.35741729 130.77514648 191.11352539 C128.13514648 190.78352539 125.49514648 190.45352539 122.77514648 190.11352539 C122.7803833 190.80502686 122.78562012 191.49652832 122.79101562 192.20898438 C122.81172149 195.32298891 122.82478612 198.436979 122.83764648 201.55102539 C122.84602539 202.63963867 122.8544043 203.72825195 122.86303711 204.84985352 C122.86625977 205.88432617 122.86948242 206.91879883 122.87280273 207.98461914 C122.87803955 208.94295654 122.88327637 209.90129395 122.88867188 210.88867188 C122.77514648 213.11352539 122.77514648 213.11352539 121.77514648 214.11352539 C119.77556285 214.15433322 117.77469394 214.15606895 115.77514648 214.11352539 C115.78674805 214.99266602 115.79834961 215.87180664 115.81030273 216.77758789 C115.91265571 231.60414816 115.27078247 246.24444593 114.77514648 261.11352539 C63.29514648 261.11352539 11.81514648 261.11352539 -41.22485352 261.11352539 C-42.25650875 256.98690444 -42.35167343 253.27589225 -42.32250977 249.06665039 C-42.32109482 248.29544861 -42.31967987 247.52424683 -42.31822205 246.72967529 C-42.31263885 244.27425201 -42.30008947 241.81892097 -42.28735352 239.36352539 C-42.28233634 237.69555796 -42.27777381 236.0275891 -42.27368164 234.35961914 C-42.26267493 230.27755252 -42.24542188 226.19555458 -42.22485352 222.11352539 C-44.53485352 221.78352539 -46.84485352 221.45352539 -49.22485352 221.11352539 C-50.34397064 217.75617402 -50.33850938 215.23147153 -50.32250977 211.69555664 C-50.31928711 210.44194336 -50.31606445 209.18833008 -50.31274414 207.89672852 C-50.30436523 206.58639648 -50.29598633 205.27606445 -50.28735352 203.92602539 C-50.28233669 202.59074058 -50.2777741 201.25545398 -50.27368164 199.92016602 C-50.26188047 196.65124066 -50.24541649 193.38240548 -50.22485352 190.11352539 C-52.53485352 190.11352539 -54.84485352 190.11352539 -57.22485352 190.11352539 C-58.57925019 187.40473204 -58.28986802 185.10419271 -58.22485352 182.11352539 C-60.53485352 182.11352539 -62.84485352 182.11352539 -65.22485352 182.11352539 C-65.22485352 171.55352539 -65.22485352 160.99352539 -65.22485352 150.11352539 C-62.58485352 150.11352539 -59.94485352 150.11352539 -57.22485352 150.11352539 C-57.22485352 147.47352539 -57.22485352 144.83352539 -57.22485352 142.11352539 C-59.86485352 142.11352539 -62.50485352 142.11352539 -65.22485352 142.11352539 C-65.22485352 139.47352539 -65.22485352 136.83352539 -65.22485352 134.11352539 C-67.86485352 134.11352539 -70.50485352 134.11352539 -73.22485352 134.11352539 C-73.22485352 118.60352539 -73.22485352 103.09352539 -73.22485352 87.11352539 C-70.58485352 87.11352539 -67.94485352 87.11352539 -65.22485352 87.11352539 C-65.22485352 81.83352539 -65.22485352 76.55352539 -65.22485352 71.11352539 C-62.91485352 71.11352539 -60.60485352 71.11352539 -58.22485352 71.11352539 C-58.08047852 69.97915039 -57.93610352 68.84477539 -57.78735352 67.67602539 C-57.22485352 64.11352539 -57.22485352 64.11352539 -56.22485352 63.11352539 C-54.22526988 63.07271756 -52.22440098 63.07098183 -50.22485352 63.11352539 C-50.24547852 62.16477539 -50.26610352 61.21602539 -50.28735352 60.23852539 C-50.22485352 57.11352539 -50.22485352 57.11352539 -49.22485352 55.11352539 C-46.91485352 55.11352539 -44.60485352 55.11352539 -42.22485352 55.11352539 C-42.23645508 54.28208008 -42.24805664 53.45063477 -42.26000977 52.59399414 C-42.2690332 51.50731445 -42.27805664 50.42063477 -42.28735352 49.30102539 C-42.29895508 48.22208008 -42.31055664 47.14313477 -42.32250977 46.03149414 C-42.22485352 43.11352539 -42.22485352 43.11352539 -41.22485352 40.11352539 C-38.91485352 40.11352539 -36.60485352 40.11352539 -34.22485352 40.11352539 C-34.55485352 34.83352539 -34.88485352 29.55352539 -35.22485352 24.11352539 C-32.26820832 22.63520279 -29.48255615 23.05319756 -26.22485352 23.11352539 C-26.22485352 20.80352539 -26.22485352 18.49352539 -26.22485352 16.11352539 C-23.58485352 16.11352539 -20.94485352 16.11352539 -18.22485352 16.11352539 C-18.22485352 13.47352539 -18.22485352 10.83352539 -18.22485352 8.11352539 C-13.27485352 8.11352539 -8.32485352 8.11352539 -3.22485352 8.11352539 C-3.22485352 5.80352539 -3.22485352 3.49352539 -3.22485352 1.11352539 C-2.22485352 0.11352539 -2.22485352 0.11352539 0 0 Z " fill="#FDFBFC" transform="translate(276.224853515625,179.886474609375)"/>
<path d="M0 0 C10.56 0 21.12 0 32 0 C32 2.64 32 5.28 32 8 C34.64 8 37.28 8 40 8 C40 10.64 40 13.28 40 16 C42.64 16 45.28 16 48 16 C48 26.23 48 36.46 48 47 C50.31 47 52.62 47 55 47 C55 49.64 55 52.28 55 55 C57.64 55 60.28 55 63 55 C63 65.56 63 76.12 63 87 C60.36 87 57.72 87 55 87 C55 89.64 55 92.28 55 95 C50.05 95 45.1 95 40 95 C40 97.64 40 100.28 40 103 C21.85 103 3.7 103 -15 103 C-15 100.36 -15 97.72 -15 95 C-17.64 95 -20.28 95 -23 95 C-23 92.36 -23 89.72 -23 87 C-25.64 87 -28.28 87 -31 87 C-31 84.36 -31 81.72 -31 79 C-33.64 79 -36.28 79 -39 79 C-39 71.08 -39 63.16 -39 55 C-36.36 55 -33.72 55 -31 55 C-31 50.05 -31 45.1 -31 40 C-28.36 40 -25.72 40 -23 40 C-23 34.72 -23 29.44 -23 24 C-20.36 24 -17.72 24 -15 24 C-15 21.36 -15 18.72 -15 16 C-12.36 16 -9.72 16 -7 16 C-7 13.36 -7 10.72 -7 8 C-4.69 8 -2.38 8 0 8 C0 5.36 0 2.72 0 0 Z " fill="#F497B5" transform="translate(297,275)"/>
<path d="M0 0 C2.31243792 -0.02685412 4.6249627 -0.04632841 6.9375 -0.0625 C8.22527344 -0.07410156 9.51304687 -0.08570313 10.83984375 -0.09765625 C14 0 14 0 15 1 C15.08700342 2.63472882 15.10701063 4.27314055 15.09765625 5.91015625 C15.09443359 6.89951172 15.09121094 7.88886719 15.08789062 8.90820312 C15.07951172 9.94912109 15.07113281 10.99003906 15.0625 12.0625 C15.05798828 13.10728516 15.05347656 14.15207031 15.04882812 15.22851562 C15.03699913 17.8190666 15.02051689 20.40950559 15 23 C12.36 23 9.72 23 7 23 C7 38.51 7 54.02 7 70 C-39.2 70 -85.4 70 -133 70 C-133 57.13 -133 44.26 -133 31 C-135.64 31 -138.28 31 -141 31 C-141 23.41 -141 15.82 -141 8 C-135.72 8 -130.44 8 -125 8 C-125 10.31 -125 12.62 -125 15 C-124.00097656 14.98839844 -123.00195312 14.97679687 -121.97265625 14.96484375 C-120.68230469 14.95582031 -119.39195312 14.94679688 -118.0625 14.9375 C-116.77472656 14.92589844 -115.48695313 14.91429687 -114.16015625 14.90234375 C-111 15 -111 15 -110 16 C-110 18.64 -110 21.28 -110 24 C-104.72 24 -99.44 24 -94 24 C-94 26.31 -94 28.62 -94 31 C-76.18 31 -58.36 31 -40 31 C-40 28.69 -40 26.38 -40 24 C-34.72 24 -29.44 24 -24 24 C-24 21.03 -24 18.06 -24 15 C-18.72 15 -13.44 15 -8 15 C-8 12.69 -8 10.38 -8 8 C-5.36 8 -2.72 8 0 8 C0 5.36 0 2.72 0 0 Z " fill="#E1E1E1" transform="translate(376,370)"/>
<path d="M0 0 C2.64 0 5.28 0 8 0 C8 2.31 8 4.62 8 7 C9.11375 6.95875 10.2275 6.9175 11.375 6.875 C15 7 15 7 17 9 C16.625 11.625 16.625 11.625 16 14 C18.31 14.66 20.62 15.32 23 16 C23 26.23 23 36.46 23 47 C25.64 47 28.28 47 31 47 C31 49.64 31 52.28 31 55 C33.64 54.67 36.28 54.34 39 54 C40.4783226 56.95664519 40.06032783 59.74229737 40 63 C42.31 63 44.62 63 47 63 C47 68.28 47 73.56 47 79 C44.36 79 41.72 79 39 79 C39 73.72 39 68.44 39 63 C36.36 63 33.72 63 31 63 C31 60.69 31 58.38 31 56 C26.05 56 21.1 56 16 56 C16 60.95 16 65.9 16 71 C13.36 71 10.72 71 8 71 C8 73.64 8 76.28 8 79 C5.36 79 2.72 79 0 79 C0 76.36 0 73.72 0 71 C-2.64 71 -5.28 71 -8 71 C-8 73.64 -8 76.28 -8 79 C-15.59 79 -23.18 79 -31 79 C-31 76.36 -31 73.72 -31 71 C-33.64 71 -36.28 71 -39 71 C-39 68.36 -39 65.72 -39 63 C-41.64 63 -44.28 63 -47 63 C-47 52.44 -47 41.88 -47 31 C-44.36 31 -41.72 31 -39 31 C-39 28.36 -39 25.72 -39 23 C-36.69 23 -34.38 23 -32 23 C-32 20.69 -32 18.38 -32 16 C-24.08 16 -16.16 16 -8 16 C-8 18.64 -8 21.28 -8 24 C-5.36 24 -2.72 24 0 24 C0 26.31 0 28.62 0 31 C2.64 31 5.28 31 8 31 C8 38.92 8 46.84 8 55 C10.31 55 12.62 55 15 55 C15 42.13 15 29.26 15 16 C12.69 16 10.38 16 8 16 C8 13.36 8 10.72 8 8 C5.36 8 2.72 8 0 8 C0 5.36 0 2.72 0 0 Z " fill="#F497B5" transform="translate(368,196)"/>
<path d="M0 0 C2.64 0 5.28 0 8 0 C8 10.23 8 20.46 8 31 C10.31 31 12.62 31 15 31 C15 33.64 15 36.28 15 39 C17.64 39 20.28 39 23 39 C23 49.56 23 60.12 23 71 C20.36 71 17.72 71 15 71 C15 73.64 15 76.28 15 79 C10.05 79 5.1 79 0 79 C0 81.64 0 84.28 0 87 C-18.15 87 -36.3 87 -55 87 C-55 84.36 -55 81.72 -55 79 C-57.64 79 -60.28 79 -63 79 C-63 76.36 -63 73.72 -63 71 C-65.64 71 -68.28 71 -71 71 C-71 68.36 -71 65.72 -71 63 C-73.64 63 -76.28 63 -79 63 C-79 55.08 -79 47.16 -79 39 C-76.36 39 -73.72 39 -71 39 C-71 34.05 -71 29.1 -71 24 C-68.36 24 -65.72 24 -63 24 C-63 18.72 -63 13.44 -63 8 C-60.36 8 -57.72 8 -55 8 C-55 18.23 -55 28.46 -55 39 C-57.64 39 -60.28 39 -63 39 C-63 44.28 -63 49.56 -63 55 C-60.36 55 -57.72 55 -55 55 C-55 57.64 -55 60.28 -55 63 C-50.05 63 -45.1 63 -40 63 C-40 60.36 -40 57.72 -40 55 C-32.08 55 -24.16 55 -16 55 C-16 57.64 -16 60.28 -16 63 C-10.72 63 -5.44 63 0 63 C0 60.36 0 57.72 0 55 C2.31 55 4.62 55 7 55 C7 49.72 7 44.44 7 39 C4.69 39 2.38 39 0 39 C0 26.13 0 13.26 0 0 Z " fill="#EF709D" transform="translate(337,291)"/>
<path d="M0 0 C2.64 0 5.28 0 8 0 C8 2.64 8 5.28 8 8 C5.69 8 3.38 8 1 8 C1 13.28 1 18.56 1 24 C-1.64 24 -4.28 24 -7 24 C-7 34.23 -7 44.46 -7 55 C-4.69 55 -2.38 55 0 55 C0 47.08 0 39.16 0 31 C2.64 31 5.28 31 8 31 C8 28.69 8 26.38 8 24 C10.64 24 13.28 24 16 24 C16 21.36 16 18.72 16 16 C23.92 16 31.84 16 40 16 C40 18.64 40 21.28 40 24 C42.64 24 45.28 24 48 24 C48 26.31 48 28.62 48 31 C50.31 31 52.62 31 55 31 C55 41.56 55 52.12 55 63 C52.36 63 49.72 63 47 63 C47 65.64 47 68.28 47 71 C44.69 71 42.38 71 40 71 C40 73.64 40 76.28 40 79 C32.08 79 24.16 79 16 79 C16 76.36 16 73.72 16 71 C13.36 71 10.72 71 8 71 C8 65.72 8 60.44 8 55 C5.69 55 3.38 55 1 55 C1 60.28 1 65.56 1 71 C-1.97 71 -4.94 71 -8 71 C-8 66.05 -8 61.1 -8 56 C-10.31 56 -12.62 56 -15 56 C-15 53.03 -15 50.06 -15 47 C-17.64 47 -20.28 47 -23 47 C-23 49.64 -23 52.28 -23 55 C-25.64 55 -28.28 55 -31 55 C-31 60.28 -31 65.56 -31 71 C-33.64 71 -36.28 71 -39 71 C-39 65.72 -39 60.44 -39 55 C-36.69 55 -34.38 55 -32 55 C-31.855625 53.865625 -31.71125 52.73125 -31.5625 51.5625 C-31 48 -31 48 -30 47 C-28.00041636 46.95919217 -25.99954746 46.95745644 -24 47 C-24.020625 46.05125 -24.04125 45.1025 -24.0625 44.125 C-24 41 -24 41 -23 39 C-20.69 39 -18.38 39 -16 39 C-16.01160156 38.16855469 -16.02320313 37.33710938 -16.03515625 36.48046875 C-16.04417969 35.39378906 -16.05320313 34.30710938 -16.0625 33.1875 C-16.07410156 32.10855469 -16.08570313 31.02960938 -16.09765625 29.91796875 C-16 27 -16 27 -15 24 C-12.69 24 -10.38 24 -8 24 C-8.33 18.72 -8.66 13.44 -9 8 C-6.04335481 6.5216774 -3.25770263 6.93967217 0 7 C0 4.69 0 2.38 0 0 Z " fill="#F298B5" transform="translate(250,196)"/>
<path d="M0 0 C2.64 0 5.28 0 8 0 C8 5.28 8 10.56 8 16 C5.36 16 2.72 16 0 16 C0 23.92 0 31.84 0 40 C2.64 40 5.28 40 8 40 C8 42.64 8 45.28 8 48 C10.64 48 13.28 48 16 48 C16 58.23 16 68.46 16 79 C18.64 79 21.28 79 24 79 C24 91.87 24 104.74 24 118 C70.2 118 116.4 118 164 118 C164 102.49 164 86.98 164 71 C166.64 71 169.28 71 172 71 C172 63.41 172 55.82 172 48 C174.64 48 177.28 48 180 48 C180.02887236 51.81248426 180.04675492 55.6249407 180.0625 59.4375 C180.07087891 60.52611328 180.07925781 61.61472656 180.08789062 62.73632812 C180.09111328 63.77080078 180.09433594 64.80527344 180.09765625 65.87109375 C180.10289307 66.82943115 180.10812988 67.78776855 180.11352539 68.77514648 C180 71 180 71 179 72 C177.00041636 72.04080783 174.99954746 72.04254356 173 72 C173.01160156 72.87914062 173.02320313 73.75828125 173.03515625 74.6640625 C173.13750923 89.49062277 172.49563598 104.13092053 172 119 C120.52 119 69.04 119 16 119 C14.96834476 114.87337905 14.87318008 111.16236686 14.90234375 106.953125 C14.9037587 106.18192322 14.90517365 105.41072144 14.90663147 104.6161499 C14.91221466 102.16072662 14.92476405 99.70539558 14.9375 97.25 C14.94251717 95.58203257 14.9470797 93.91406371 14.95117188 92.24609375 C14.96217859 88.16402713 14.97943164 84.08202919 15 80 C11.535 79.505 11.535 79.505 8 79 C6.88088288 75.64264863 6.88634414 73.11794614 6.90234375 69.58203125 C6.90556641 68.32841797 6.90878906 67.07480469 6.91210938 65.78320312 C6.92048828 64.47287109 6.92886719 63.16253906 6.9375 61.8125 C6.94251683 60.47721519 6.94707941 59.14192859 6.95117188 57.80664062 C6.96297305 54.53771527 6.97943703 51.26888009 7 48 C4.69 48 2.38 48 0 48 C-1.35439668 45.29120665 -1.06501451 42.99066732 -1 40 C-3.31 40 -5.62 40 -8 40 C-8 29.44 -8 18.88 -8 8 C-5.36 8 -2.72 8 0 8 C0 5.36 0 2.72 0 0 Z " fill="#1D1C1D" transform="translate(219,322)"/>
<path d="M0 0 C5.28 0 10.56 0 16 0 C16 2.64 16 5.28 16 8 C18.64 8 21.28 8 24 8 C24 10.64 24 13.28 24 16 C26.31 16 28.62 16 31 16 C31 21.28 31 26.56 31 32 C28.69 32 26.38 32 24 32 C24.020625 33.134375 24.04125 34.26875 24.0625 35.4375 C24 39 24 39 23 40 C20.66702567 40.04092937 18.33294775 40.04241723 16 40 C16 42.64 16 45.28 16 48 C10.72 48 5.44 48 0 48 C0 45.36 0 42.72 0 40 C-2.64 40 -5.28 40 -8 40 C-8 37.36 -8 34.72 -8 32 C-10.64 32 -13.28 32 -16 32 C-16 26.72 -16 21.44 -16 16 C-13.36 16 -10.72 16 -8 16 C-8 13.36 -8 10.72 -8 8 C-5.36 8 -2.72 8 0 8 C0 5.36 0 2.72 0 0 Z " fill="#E07EA2" transform="translate(368,283)"/>
<path d="M0 0 C5.61 0 11.22 0 17 0 C17 2.64 17 5.28 17 8 C19.31 8 21.62 8 24 8 C24 10.64 24 13.28 24 16 C26.64 16 29.28 16 32 16 C32 21.28 32 26.56 32 32 C29.36 32 26.72 32 24 32 C24 34.64 24 37.28 24 40 C21.69 40 19.38 40 17 40 C17 42.31 17 44.62 17 47 C11.39 47 5.78 47 0 47 C0 44.69 0 42.38 0 40 C-2.31 40 -4.62 40 -7 40 C-7 37.36 -7 34.72 -7 32 C-9.64 32 -12.28 32 -15 32 C-15 26.72 -15 21.44 -15 16 C-12.36 16 -9.72 16 -7 16 C-7 13.36 -7 10.72 -7 8 C-4.69 8 -2.38 8 0 8 C0 5.36 0 2.72 0 0 Z " fill="#F196B4" transform="translate(234,275)"/>
<path d="M0 0 C10.56 0 21.12 0 32 0 C32 5.28 32 10.56 32 16 C34.31 16 36.62 16 39 16 C39 26.23 39 36.46 39 47 C36.69 47 34.38 47 32 47 C32 39.41 32 31.82 32 24 C29.36 24 26.72 24 24 24 C24 26.64 24 29.28 24 32 C18.72 32 13.44 32 8 32 C8 29.36 8 26.72 8 24 C5.69 24 3.38 24 1 24 C1 26.64 1 29.28 1 32 C-1.64 32 -4.28 32 -7 32 C-7 34.64 -7 37.28 -7 40 C-9.64 40 -12.28 40 -15 40 C-15 32.08 -15 24.16 -15 16 C-12.36 16 -9.72 16 -7 16 C-7 13.36 -7 10.72 -7 8 C-4.69 8 -2.38 8 0 8 C0 5.36 0 2.72 0 0 Z " fill="#FABBD2" transform="translate(297,275)"/>
<path d="M0 0 C7.92 0 15.84 0 24 0 C24 2.64 24 5.28 24 8 C26.64 8 29.28 8 32 8 C32 10.31 32 12.62 32 15 C34.31 15 36.62 15 39 15 C39 25.56 39 36.12 39 47 C36.36 47 33.72 47 31 47 C31 49.64 31 52.28 31 55 C28.69 55 26.38 55 24 55 C24 57.64 24 60.28 24 63 C16.08 63 8.16 63 0 63 C0 60.36 0 57.72 0 55 C-2.64 55 -5.28 55 -8 55 C-8 49.72 -8 44.44 -8 39 C-5.36 39 -2.72 39 0 39 C0.22786458 41.01822917 0.45572917 43.03645833 0.68359375 45.0546875 C0.91292961 47.07404316 0.91292961 47.07404316 2 49 C1.67 50.32 1.34 51.64 1 53 C8.26 53 15.52 53 23 53 C23.33 48.38 23.66 43.76 24 39 C26.31 39 28.62 39 31 39 C31 36.36 31 33.72 31 31 C28.69 31 26.38 31 24 31 C23.67 28.69 23.34 26.38 23 24 C20.69 23.67 18.38 23.34 16 23 C16 20.36 16 17.72 16 15 C8.08 15.495 8.08 15.495 0 16 C0 10.72 0 5.44 0 0 Z " fill="#DD749A" transform="translate(266,212)"/>
<path d="M0 0 C2.64 0 5.28 0 8 0 C8 2.31 8 4.62 8 7 C9.11375 6.95875 10.2275 6.9175 11.375 6.875 C15 7 15 7 17 9 C16.625 11.625 16.625 11.625 16 14 C18.31 14.66 20.62 15.32 23 16 C23 26.23 23 36.46 23 47 C25.64 47 28.28 47 31 47 C31 49.64 31 52.28 31 55 C33.64 54.67 36.28 54.34 39 54 C40.4783226 56.95664519 40.06032783 59.74229737 40 63 C42.31 63 44.62 63 47 63 C47 68.28 47 73.56 47 79 C44.36 79 41.72 79 39 79 C39 73.72 39 68.44 39 63 C36.36 63 33.72 63 31 63 C31 60.69 31 58.38 31 56 C26.05 56 21.1 56 16 56 C16 60.95 16 65.9 16 71 C13.36 71 10.72 71 8 71 C8 73.64 8 76.28 8 79 C5.36 79 2.72 79 0 79 C0 63.49 0 47.98 0 32 C2.64 32 5.28 32 8 32 C8 39.59 8 47.18 8 55 C10.31 55 12.62 55 15 55 C15 42.13 15 29.26 15 16 C12.69 16 10.38 16 8 16 C8 13.36 8 10.72 8 8 C5.36 8 2.72 8 0 8 C0 5.36 0 2.72 0 0 Z " fill="#F7F0F3" transform="translate(368,196)"/>
<path d="M0 0 C7.92 0 15.84 0 24 0 C24 4.95 24 9.9 24 15 C18.72 15 13.44 15 8 15 C8 17.64 8 20.28 8 23 C5.36 23 2.72 23 0 23 C0 25.64 0 28.28 0 31 C-2.31 31 -4.62 31 -7 31 C-7 36.28 -7 41.56 -7 47 C-9.64 47 -12.28 47 -15 47 C-15 36.44 -15 25.88 -15 15 C-12.36 15 -9.72 15 -7 15 C-7 12.36 -7 9.72 -7 7 C-4.69 7 -2.38 7 0 7 C0 4.69 0 2.38 0 0 Z " fill="#F7BAD1" transform="translate(336,212)"/>
<path d="M0 0 C2.64 0 5.28 0 8 0 C8 2.64 8 5.28 8 8 C10.31 8 12.62 8 15 8 C15 10.64 15 13.28 15 16 C20.28 16 25.56 16 31 16 C31 13.36 31 10.72 31 8 C33.64 8 36.28 8 39 8 C39 5.36 39 2.72 39 0 C41.64 0 44.28 0 47 0 C47 5.28 47 10.56 47 16 C44.36 16 41.72 16 39 16 C39 18.64 39 21.28 39 24 C36.69 24 34.38 24 32 24 C32 26.31 32 28.62 32 31 C26.39 31 20.78 31 15 31 C15 28.69 15 26.38 15 24 C12.69 24 10.38 24 8 24 C8 21.36 8 18.72 8 16 C5.36 16 2.72 16 0 16 C0 10.72 0 5.44 0 0 Z " fill="#E77CA2" transform="translate(219,291)"/>
<path d="M0 0 C2.64 0 5.28 0 8 0 C8.02887236 3.81248426 8.04675492 7.6249407 8.0625 11.4375 C8.07087891 12.52611328 8.07925781 13.61472656 8.08789062 14.73632812 C8.09111328 15.77080078 8.09433594 16.80527344 8.09765625 17.87109375 C8.10289307 18.82943115 8.10812988 19.78776855 8.11352539 20.77514648 C8 23 8 23 7 24 C5.00041636 24.04080783 2.99954746 24.04254356 1 24 C1.01160156 24.87914062 1.02320313 25.75828125 1.03515625 26.6640625 C1.13750923 41.49062277 0.49563598 56.13092053 0 71 C-48.84 71 -97.68 71 -148 71 C-148 70.67 -148 70.34 -148 70 C-101.8 70 -55.6 70 -8 70 C-8 54.49 -8 38.98 -8 23 C-5.36 23 -2.72 23 0 23 C0 15.41 0 7.82 0 0 Z " fill="#B8B9BD" transform="translate(391,370)"/>
<path d="M0 0 C5.28 0 10.56 0 16 0 C16 5.28 16 10.56 16 16 C18.31 16 20.62 16 23 16 C23 18.64 23 21.28 23 24 C20.69 24 18.38 24 16 24 C16 26.31 16 28.62 16 31 C10.72 31 5.44 31 0 31 C0 28.69 0 26.38 0 24 C-2.64 24 -5.28 24 -8 24 C-8 18.72 -8 13.44 -8 8 C-5.36 8 -2.72 8 0 8 C0 5.36 0 2.72 0 0 Z " fill="#F495B4" transform="translate(368,283)"/>
<path d="M0 0 C2.64 0 5.28 0 8 0 C8 4.95 8 9.9 8 15 C5.69 15 3.38 15 1 15 C1 17.64 1 20.28 1 23 C3.31 23 5.62 23 8 23 C8 30.92 8 38.84 8 47 C5.69 47 3.38 47 1 47 C1.01160156 47.80824219 1.02320313 48.61648438 1.03515625 49.44921875 C1.04417969 50.51785156 1.05320312 51.58648437 1.0625 52.6875 C1.07410156 53.74324219 1.08570313 54.79898438 1.09765625 55.88671875 C1.00865425 58.72410262 0.64939838 61.2438919 0 64 C-2.64 63.67 -5.28 63.34 -8 63 C-8 57.72 -8 52.44 -8 47 C-5.36 47 -2.72 47 0 47 C0 39.41 0 31.82 0 24 C-2.31 24 -4.62 24 -7 24 C-7 26.31 -7 28.62 -7 31 C-9.97 31 -12.94 31 -16 31 C-16 28.36 -16 25.72 -16 23 C-13.36 23 -10.72 23 -8 23 C-8 20.36 -8 17.72 -8 15 C-5.36 15 -2.72 15 0 15 C0 10.05 0 5.1 0 0 Z " fill="#636263" transform="translate(407,307)"/>
<path d="M0 0 C7.92 0 15.84 0 24 0 C24 2.64 24 5.28 24 8 C26.64 8 29.28 8 32 8 C32 10.31 32 12.62 32 15 C34.31 15 36.62 15 39 15 C39 15.33 39 15.66 39 16 C36.36 16 33.72 16 31 16 C31 20.95 31 25.9 31 31 C28.69 31 26.38 31 24 31 C23.67 28.69 23.34 26.38 23 24 C20.69 23.67 18.38 23.34 16 23 C16 20.36 16 17.72 16 15 C8.08 15.495 8.08 15.495 0 16 C0 10.72 0 5.44 0 0 Z " fill="#F8BAD2" transform="translate(266,212)"/>
<path d="M0 0 C2.64 0 5.28 0 8 0 C8 5.28 8 10.56 8 16 C5.36 16 2.72 16 0 16 C0 18.64 0 21.28 0 24 C-7.59 24 -15.18 24 -23 24 C-23 21.36 -23 18.72 -23 16 C-25.64 16 -28.28 16 -31 16 C-31 13.36 -31 10.72 -31 8 C-20.77 8 -10.54 8 0 8 C0 5.36 0 2.72 0 0 Z " fill="#EE719D" transform="translate(360,251)"/>
<path d="M0 0 C2.31 0 4.62 0 7 0 C7 10.23 7 20.46 7 31 C4.69 31 2.38 31 0 31 C0 28.36 0 25.72 0 23 C-2.64 23 -5.28 23 -8 23 C-8 25.64 -8 28.28 -8 31 C-10.64 31 -13.28 31 -16 31 C-16 36.28 -16 41.56 -16 47 C-18.64 47 -21.28 47 -24 47 C-24 41.72 -24 36.44 -24 31 C-21.69 31 -19.38 31 -17 31 C-16.855625 29.865625 -16.71125 28.73125 -16.5625 27.5625 C-16 24 -16 24 -15 23 C-13.00041636 22.95919217 -10.99954746 22.95745644 -9 23 C-9.020625 22.05125 -9.04125 21.1025 -9.0625 20.125 C-9 17 -9 17 -8 15 C-5.69 15 -3.38 15 -1 15 C-1.01160156 14.16855469 -1.02320313 13.33710938 -1.03515625 12.48046875 C-1.04417969 11.39378906 -1.05320313 10.30710938 -1.0625 9.1875 C-1.07410156 8.10855469 -1.08570313 7.02960938 -1.09765625 5.91796875 C-1 3 -1 3 0 0 Z " fill="#212022" transform="translate(235,220)"/>
<path d="M0 0 C2.64 0 5.28 0 8 0 C8 2.31 8 4.62 8 7 C9.11375 6.95875 10.2275 6.9175 11.375 6.875 C15 7 15 7 17 9 C16.625 11.625 16.625 11.625 16 14 C18.31 14.66 20.62 15.32 23 16 C23 26.23 23 36.46 23 47 C25.64 47 28.28 47 31 47 C31 49.64 31 52.28 31 55 C26.05 55 21.1 55 16 55 C16 42.13 16 29.26 16 16 C13.36 16 10.72 16 8 16 C8 13.36 8 10.72 8 8 C5.36 8 2.72 8 0 8 C0 5.36 0 2.72 0 0 Z " fill="#1E1D1E" transform="translate(368,196)"/>
<path d="M0 0 C5.53588533 -0.02464775 11.071739 -0.04283496 16.60766602 -0.05493164 C18.4924373 -0.05997244 20.37720465 -0.06680498 22.26196289 -0.07543945 C24.96501636 -0.08751617 27.66801831 -0.09323068 30.37109375 -0.09765625 C31.21900986 -0.10281754 32.06692596 -0.10797882 32.9405365 -0.11329651 C34.96071068 -0.11349195 36.98077934 -0.06206211 39 0 C40 1 40 1 40.0625 4.5625 C40.041875 5.696875 40.02125 6.83125 40 8 C42.31 8 44.62 8 47 8 C47 10.64 47 13.28 47 16 C44.36 16 41.72 16 39 16 C39 13.36 39 10.72 39 8 C26.13 8 13.26 8 0 8 C0 5.36 0 2.72 0 0 Z " fill="#211F22" transform="translate(321,180)"/>
<path d="M0 0 C17.82 0 35.64 0 54 0 C54 2.31 54 4.62 54 7 C36.18 7 18.36 7 0 7 C0 4.69 0 2.38 0 0 Z " fill="#B35679" transform="translate(282,370)"/>
<path d="M0 0 C2.64 0 5.28 0 8 0 C8 15.51 8 31.02 8 47 C5.36 47 2.72 47 0 47 C0 31.49 0 15.98 0 0 Z " fill="#201F22" transform="translate(203,267)"/>
<path d="M0 0 C2.64 0 5.28 0 8 0 C8 10.23 8 20.46 8 31 C2.72 31 -2.56 31 -8 31 C-8 26.05 -8 21.1 -8 16 C-5.36 16 -2.72 16 0 16 C0 10.72 0 5.44 0 0 Z " fill="#EA739D" transform="translate(274,299)"/>
<path d="M0 0 C2.64 0 5.28 0 8 0 C8.2069248 15.68030184 7.57892738 31.3335477 7 47 C4.69 47 2.38 47 0 47 C0 31.49 0 15.98 0 0 Z " fill="#1E1E1E" transform="translate(384,394)"/>
<path d="M0 0 C10.56 0 21.12 0 32 0 C32 2.64 32 5.28 32 8 C21.77 8 11.54 8 1 8 C1 10.64 1 13.28 1 16 C-1.64 16 -4.28 16 -7 16 C-7 13.36 -7 10.72 -7 8 C-4.69 8 -2.38 8 0 8 C0 5.36 0 2.72 0 0 Z " fill="#B2627F" transform="translate(297,275)"/>
<path d="M0 0 C0.9583374 0.00523682 1.9166748 0.01047363 2.90405273 0.01586914 C4.45576172 0.02070313 4.45576172 0.02070313 6.03881836 0.02563477 C7.12743164 0.03401367 8.21604492 0.04239258 9.33764648 0.05102539 C10.97636719 0.05779297 10.97636719 0.05779297 12.64819336 0.06469727 C15.35723144 0.07652713 18.06616248 0.09300996 20.77514648 0.11352539 C20.77514648 2.75352539 20.77514648 5.39352539 20.77514648 8.11352539 C13.18514648 8.11352539 5.59514648 8.11352539 -2.22485352 8.11352539 C-2.22485352 10.75352539 -2.22485352 13.39352539 -2.22485352 16.11352539 C-7.50485352 16.11352539 -12.78485352 16.11352539 -18.22485352 16.11352539 C-18.22485352 13.47352539 -18.22485352 10.83352539 -18.22485352 8.11352539 C-13.27485352 8.11352539 -8.32485352 8.11352539 -3.22485352 8.11352539 C-3.22485352 5.80352539 -3.22485352 3.49352539 -3.22485352 1.11352539 C-2.22485352 0.11352539 -2.22485352 0.11352539 0 0 Z " fill="#222224" transform="translate(276.224853515625,179.886474609375)"/>
<path d="M0 0 C2.64 0 5.28 0 8 0 C8 5.28 8 10.56 8 16 C5.03 16 2.06 16 -1 16 C-1 23.59 -1 31.18 -1 39 C-2.98 39 -4.96 39 -7 39 C-7 29.1 -7 19.2 -7 9 C-4.69 9 -2.38 9 0 9 C0 6.03 0 3.06 0 0 Z " fill="#232223" transform="translate(219,322)"/>
<path d="M0 0 C2.64 0 5.28 0 8 0 C8 2.31 8 4.62 8 7 C26.15 7 44.3 7 63 7 C63 4.69 63 2.38 63 0 C67.95 0 72.9 0 78 0 C78 2.64 78 5.28 78 8 C73.05 8 68.1 8 63 8 C63 10.64 63 13.28 63 16 C44.85 16 26.7 16 8 16 C8 15.67 8 15.34 8 15 C25.82 15 43.64 15 62 15 C62 12.69 62 10.38 62 8 C41.54 8 21.08 8 0 8 C0 5.36 0 2.72 0 0 Z " fill="#CB7C9B" transform="translate(274,362)"/>
<path d="M0 0 C2.31 0 4.62 0 7 0 C7 12.87 7 25.74 7 39 C4.69 39 2.38 39 0 39 C-1.34353395 35.03725341 -1.02832322 31.07023175 -0.87890625 26.953125 C-0.85529526 26.18192322 -0.83168427 25.41072144 -0.80735779 24.6161499 C-0.73097661 22.16056736 -0.64684308 19.7053207 -0.5625 17.25 C-0.5092537 15.58204751 -0.45651348 13.91407879 -0.40429688 12.24609375 C-0.27539622 8.16385106 -0.13954376 4.08189217 0 0 Z " fill="#1C1B1C" transform="translate(235,402)"/>
<path d="M0 0 C2.97 0 5.94 0 9 0 C8.67 10.56 8.34 21.12 8 32 C5.36 32 2.72 32 0 32 C0 21.44 0 10.88 0 0 Z " fill="#232224" transform="translate(415,275)"/>
<path d="M0 0 C2.64 0 5.28 0 8 0 C8 10.23 8 20.46 8 31 C5.36 31 2.72 31 0 31 C0 20.77 0 10.54 0 0 Z " fill="#B4597B" transform="translate(352,331)"/>
<path d="M0 0 C2.64 0 5.28 0 8 0 C8 5.28 8 10.56 8 16 C5.36 16 2.72 16 0 16 C0 18.31 0 20.62 0 23 C-2.64 23 -5.28 23 -8 23 C-8 18.05 -8 13.1 -8 8 C-5.36 8 -2.72 8 0 8 C0 5.36 0 2.72 0 0 Z " fill="#E6769E" transform="translate(258,291)"/>
<path d="M0 0 C2.64 0 5.28 0 8 0 C8 10.23 8 20.46 8 31 C5.36 31 2.72 31 0 31 C0 20.77 0 10.54 0 0 Z " fill="#B15B7B" transform="translate(321,228)"/>
<path d="M0 0 C7.92 0 15.84 0 24 0 C24 2.64 24 5.28 24 8 C26.31 8 28.62 8 31 8 C31 10.31 31 12.62 31 15 C28.36 15 25.72 15 23 15 C23 12.69 23 10.38 23 8 C15.41 8 7.82 8 0 8 C0 5.36 0 2.72 0 0 Z " fill="#AF5878" transform="translate(266,212)"/>
<path d="M0 0 C2.64 0 5.28 0 8 0 C8 2.64 8 5.28 8 8 C10.31 8 12.62 8 15 8 C15.33 12.95 15.66 17.9 16 23 C13.36 23 10.72 23 8 23 C8 20.69 8 18.38 8 16 C5.36 16 2.72 16 0 16 C0 10.72 0 5.44 0 0 Z " fill="#E4759D" transform="translate(219,291)"/>
<path d="M0 0 C2.31 0 4.62 0 7 0 C7 10.23 7 20.46 7 31 C4.69 31 2.38 31 0 31 C0 20.77 0 10.54 0 0 Z " fill="#AF5577" transform="translate(337,291)"/>
<path d="M0 0 C2.31 0 4.62 0 7 0 C7 10.23 7 20.46 7 31 C4.69 31 2.38 31 0 31 C0 20.77 0 10.54 0 0 Z " fill="#AE5778" transform="translate(298,228)"/>
<path d="M0 0 C1.4783226 2.95664519 1.06032783 5.74229737 1 9 C2.98 8.34 4.96 7.68 7 7 C7.33 5.02 7.66 3.04 8 1 C10.64 1 13.28 1 16 1 C16 3.64 16 6.28 16 9 C13.36 9 10.72 9 8 9 C8 11.64 8 14.28 8 17 C5.36 17 2.72 17 0 17 C0 14.36 0 11.72 0 9 C-2.64 9 -5.28 9 -8 9 C-8 6.36 -8 3.72 -8 1 C-2.25 0 -2.25 0 0 0 Z " fill="#272728" transform="translate(305,187)"/>
<path d="M0 0 C2.64 0 5.28 0 8 0 C8 2.64 8 5.28 8 8 C5.36 8 2.72 8 0 8 C0 12.95 0 17.9 0 23 C-2.64 23 -5.28 23 -8 23 C-8.33 18.05 -8.66 13.1 -9 8 C-6.04335481 6.5216774 -3.25770263 6.93967217 0 7 C0 4.69 0 2.38 0 0 Z " fill="#232224" transform="translate(250,196)"/>
<path d="M0 0 C1.4783226 2.95664519 1.06032783 5.74229737 1 9 C3.31 9 5.62 9 8 9 C8 14.28 8 19.56 8 25 C5.36 25 2.72 25 0 25 C0 19.72 0 14.44 0 9 C-2.31 9 -4.62 9 -7 9 C-7 6.36 -7 3.72 -7 1 C-2.25 0 -2.25 0 0 0 Z " fill="#282728" transform="translate(407,250)"/>
<path d="M0 0 C2.64 0 5.28 0 8 0 C8 7.92 8 15.84 8 24 C5.36 24 2.72 24 0 24 C0 16.08 0 8.16 0 0 Z " fill="#B25D7C" transform="translate(258,330)"/>
<path d="M0 0 C7.59 0 15.18 0 23 0 C23 2.64 23 5.28 23 8 C15.41 8 7.82 8 0 8 C0 5.36 0 2.72 0 0 Z " fill="#B1597B" transform="translate(337,267)"/>
<path d="M0 0 C7.59 0 15.18 0 23 0 C23 2.64 23 5.28 23 8 C15.41 8 7.82 8 0 8 C0 5.36 0 2.72 0 0 Z " fill="#B7577B" transform="translate(266,267)"/>
<path d="M0 0 C2.64 0 5.28 0 8 0 C8 7.59 8 15.18 8 23 C5.36 23 2.72 23 0 23 C0 15.41 0 7.82 0 0 Z " fill="#B15C7C" transform="translate(368,228)"/>
<path d="M0 0 C7.59 0 15.18 0 23 0 C23 2.64 23 5.28 23 8 C15.41 8 7.82 8 0 8 C0 5.36 0 2.72 0 0 Z " fill="#B25C7D" transform="translate(337,212)"/>
<path d="M0 0 C2.31 0 4.62 0 7 0 C7 7.92 7 15.84 7 24 C4.69 24 2.38 24 0 24 C0 16.08 0 8.16 0 0 Z " fill="#1F1E20" transform="translate(408,330)"/>
<path d="M0 0 C2.31 0 4.62 0 7 0 C7.02887236 3.81248426 7.04675492 7.6249407 7.0625 11.4375 C7.07087891 12.52611328 7.07925781 13.61472656 7.08789062 14.73632812 C7.09111328 15.77080078 7.09433594 16.80527344 7.09765625 17.87109375 C7.10289307 18.82943115 7.10812988 19.78776855 7.11352539 20.77514648 C7 23 7 23 6 24 C4.02 24 2.04 24 0 24 C0 16.08 0 8.16 0 0 Z " fill="#1C1E1E" transform="translate(392,370)"/>
<path d="M0 0 C2.64 0 5.28 0 8 0 C8 2.64 8 5.28 8 8 C5.69 8 3.38 8 1 8 C1 20.87 1 33.74 1 47 C3.31 47 5.62 47 8 47 C8 49.64 8 52.28 8 55 C5.36 55 2.72 55 0 55 C0 36.85 0 18.7 0 0 Z " fill="#CAC9CA" transform="translate(211,267)"/>
<path d="M0 0 C2.64 0 5.28 0 8 0 C8 0.33 8 0.66 8 1 C5.69 1 3.38 1 1 1 C1 10.9 1 20.8 1 31 C2.98 31 4.96 31 7 31 C7 23.41 7 15.82 7 8 C7.33 8 7.66 8 8 8 C8 15.92 8 23.84 8 32 C10.64 32 13.28 32 16 32 C16 41.9 16 51.8 16 62 C15.67 62 15.34 62 15 62 C15 54.74 15 47.48 15 40 C12.69 40 10.38 40 8 40 C6.64560332 37.29120665 6.93498549 34.99066732 7 32 C4.69 32 2.38 32 0 32 C0 21.44 0 10.88 0 0 Z " fill="#2E2E33" transform="translate(211,330)"/>
<path d="M0 0 C2.31 0 4.62 0 7 0 C7 7.59 7 15.18 7 23 C4.69 23 2.38 23 0 23 C0 15.41 0 7.82 0 0 Z " fill="#B05778" transform="translate(251,228)"/>
<path d="M0 0 C7.26 0 14.52 0 22 0 C22 1.98 22 3.96 22 6 C19.72926921 7.1353654 18.45716721 7.12892412 15.9375 7.1328125 C15.14085937 7.13410156 14.34421875 7.13539063 13.5234375 7.13671875 C12.69070313 7.13285156 11.85796875 7.12898438 11 7.125 C9.75089844 7.13080078 9.75089844 7.13080078 8.4765625 7.13671875 C7.67992187 7.13542969 6.88328125 7.13414062 6.0625 7.1328125 C5.33160156 7.13168457 4.60070312 7.13055664 3.84765625 7.12939453 C2 7 2 7 0 6 C0 4.02 0 2.04 0 0 Z " fill="#EE729E" transform="translate(267,259)"/>
<path d="M0 0 C2.64 0 5.28 0 8 0 C8 2.31 8 4.62 8 7 C9.11375 6.95875 10.2275 6.9175 11.375 6.875 C15 7 15 7 17 9 C16.625 11.625 16.625 11.625 16 14 C16.99 14.66 17.98 15.32 19 16 C15.37 16 11.74 16 8 16 C8 13.36 8 10.72 8 8 C5.36 8 2.72 8 0 8 C0 5.36 0 2.72 0 0 Z " fill="#2D2C2F" transform="translate(368,196)"/>
<path d="M0 0 C2.64 0 5.28 0 8 0 C8 5.28 8 10.56 8 16 C5.36 16 2.72 16 0 16 C0 10.72 0 5.44 0 0 Z " fill="#B35A7B" transform="translate(360,251)"/>
<path d="M0 0 C2.64 0 5.28 0 8 0 C8 5.28 8 10.56 8 16 C5.36 16 2.72 16 0 16 C0 10.72 0 5.44 0 0 Z " fill="#B55B7D" transform="translate(258,251)"/>
<path d="M0 0 C2.64 0 5.28 0 8 0 C8 4.95 8 9.9 8 15 C5.36 15 2.72 15 0 15 C0 10.05 0 5.1 0 0 Z " fill="#B45A7B" transform="translate(266,315)"/>
<path d="M0 0 C2.64 0 5.28 0 8 0 C8 4.95 8 9.9 8 15 C5.36 15 2.72 15 0 15 C0 10.05 0 5.1 0 0 Z " fill="#B15A7A" transform="translate(258,291)"/>
<path d="M0 0 C2.64 0 5.28 0 8 0 C8 4.95 8 9.9 8 15 C5.36 15 2.72 15 0 15 C0 10.05 0 5.1 0 0 Z " fill="#B7597B" transform="translate(219,291)"/>
<path d="M0 0 C4.95 0 9.9 0 15 0 C15 2.64 15 5.28 15 8 C10.05 8 5.1 8 0 8 C0 5.36 0 2.72 0 0 Z " fill="#B15C7B" transform="translate(368,283)"/>
<path d="M0 0 C4.95 0 9.9 0 15 0 C15 2.64 15 5.28 15 8 C10.05 8 5.1 8 0 8 C0 5.36 0 2.72 0 0 Z " fill="#FABAD2" transform="translate(235,283)"/>
<path d="M0 0 C4.95 0 9.9 0 15 0 C15 2.64 15 5.28 15 8 C10.05 8 5.1 8 0 8 C0 5.36 0 2.72 0 0 Z " fill="#A9617B" transform="translate(235,275)"/>
<path d="M0 0 C2.64 0 5.28 0 8 0 C8 2.31 8 4.62 8 7 C10.64 7 13.28 7 16 7 C16 7.33 16 7.66 16 8 C5.77 8 -4.46 8 -15 8 C-15 10.64 -15 13.28 -15 16 C-17.64 16 -20.28 16 -23 16 C-23 18.64 -23 21.28 -23 24 C-25.64 24 -28.28 24 -31 24 C-31 23.67 -31 23.34 -31 23 C-28.69 23 -26.38 23 -24 23 C-24 20.36 -24 17.72 -24 15 C-21.36 15 -18.72 15 -16 15 C-16 12.36 -16 9.72 -16 7 C-10.72 7 -5.44 7 0 7 C0 4.69 0 2.38 0 0 Z " fill="#EEA6BF" transform="translate(360,220)"/>
<path d="M0 0 C2.31 0 4.62 0 7 0 C7 5.28 7 10.56 7 16 C4.69 16 2.38 16 0 16 C0 10.72 0 5.44 0 0 Z " fill="#AF5978" transform="translate(274,299)"/>
<path d="M0 0 C0.33 0 0.66 0 1 0 C1 10.23 1 20.46 1 31 C3.64 31 6.28 31 9 31 C9 44.2 9 57.4 9 71 C8.67 71 8.34 71 8 71 C8 58.13 8 45.26 8 32 C7.34 32.66 6.68 33.32 6 34 C4.35 34 2.7 34 1 34 C1 41.26 1 48.52 1 56 C0.67 56 0.34 56 0 56 C-1.11951433 37.25257752 -0.82399282 18.74256676 0 0 Z " fill="#69686A" transform="translate(234,370)"/>
<path d="M0 0 C4.95 0 9.9 0 15 0 C15 2.31 15 4.62 15 7 C10.05 7 5.1 7 0 7 C0 4.69 0 2.38 0 0 Z " fill="#B45679" transform="translate(337,362)"/>
<path d="M0 0 C4.95 0 9.9 0 15 0 C15 2.31 15 4.62 15 7 C10.05 7 5.1 7 0 7 C0 4.69 0 2.38 0 0 Z " fill="#AF5879" transform="translate(368,323)"/>
<path d="M0 0 C4.95 0 9.9 0 15 0 C15 2.31 15 4.62 15 7 C10.05 7 5.1 7 0 7 C0 4.69 0 2.38 0 0 Z " fill="#AE5777" transform="translate(235,315)"/>
<path d="M0 0 C2.31 0 4.62 0 7 0 C7 4.95 7 9.9 7 15 C4.69 15 2.38 15 0 15 C0 10.05 0 5.1 0 0 Z " fill="#1D1D1F" transform="translate(408,307)"/>
<path d="M0 0 C2.31 0 4.62 0 7 0 C7 4.95 7 9.9 7 15 C4.69 15 2.38 15 0 15 C0 10.05 0 5.1 0 0 Z " fill="#AE5777" transform="translate(392,299)"/>
<path d="M0 0 C2.31 0 4.62 0 7 0 C7 4.95 7 9.9 7 15 C4.69 15 2.38 15 0 15 C0 10.05 0 5.1 0 0 Z " fill="#AF5779" transform="translate(353,299)"/>
<path d="M0 0 C2.31 0 4.62 0 7 0 C7 4.95 7 9.9 7 15 C4.69 15 2.38 15 0 15 C0 10.05 0 5.1 0 0 Z " fill="#1D1D1D" transform="translate(376,252)"/>
<path d="M0 0 C2.31 0 4.62 0 7 0 C7 4.95 7 9.9 7 15 C4.69 15 2.38 15 0 15 C0 10.05 0 5.1 0 0 Z " fill="#1B1B1B" transform="translate(243,252)"/>
<path d="M0 0 C2.31 0 4.62 0 7 0 C9.29771645 4.59543291 8.24581251 11.17247654 7 16 C4.69 15.67 2.38 15.34 0 15 C0 10.05 0 5.1 0 0 Z " fill="#1B1B1E" transform="translate(400,355)"/>
<path d="M0 0 C0.33 0 0.66 0 1 0 C1 10.23 1 20.46 1 31 C3.31 31 5.62 31 8 31 C8 31.33 8 31.66 8 32 C5.69 32 3.38 32 1 32 C1 34.31 1 36.62 1 39 C-1.64 39 -4.28 39 -7 39 C-7 36.36 -7 33.72 -7 31 C-4.69 31 -2.38 31 0 31 C0 20.77 0 10.54 0 0 Z " fill="#E186A6" transform="translate(344,291)"/>
<path d="M0 0 C1.50156874 3.00313748 1.09281204 5.79067522 1.0625 9.125 C1.05347656 10.40632812 1.04445313 11.68765625 1.03515625 13.0078125 C1.02355469 13.99523437 1.01195312 14.98265625 1 16 C3.31 16 5.62 16 8 16 C8 16.33 8 16.66 8 17 C5.36 17 2.72 17 0 17 C0 14.36 0 11.72 0 9 C-2.64 9 -5.28 9 -8 9 C-8 6.36 -8 3.72 -8 1 C-2.25 0 -2.25 0 0 0 Z " fill="#313233" transform="translate(305,187)"/>
<path d="M0 0 C0.33 0 0.66 0 1 0 C1 10.23 1 20.46 1 31 C-1.64 31 -4.28 31 -7 31 C-7 28.36 -7 25.72 -7 23 C-4.69 23 -2.38 23 0 23 C0 15.41 0 7.82 0 0 Z " fill="#E17299" transform="translate(297,228)"/>
<path d="M0 0 C0.33 0 0.66 0 1 0 C1 2.64 1 5.28 1 8 C3.31 8 5.62 8 8 8 C8 10.31 8 12.62 8 15 C5.36 15 2.72 15 0 15 C0 12.69 0 10.38 0 8 C-7.59 8 -15.18 8 -23 8 C-23 7.67 -23 7.34 -23 7 C-15.41 7 -7.82 7 0 7 C0 4.69 0 2.38 0 0 Z " fill="#B96A87" transform="translate(289,212)"/>
<path d="M0 0 C0.33 0 0.66 0 1 0 C1 12.87 1 25.74 1 39 C6.28 39 11.56 39 17 39 C17 41.64 17 44.28 17 47 C16.67 47 16.34 47 16 47 C16 44.69 16 42.38 16 40 C11.05 40 6.1 40 1 40 C1 44.95 1 49.9 1 55 C0.67 55 0.34 55 0 55 C0 50.05 0 45.1 0 40 C-2.31 40 -4.62 40 -7 40 C-7 39.67 -7 39.34 -7 39 C-4.69 39 -2.38 39 0 39 C0 26.13 0 13.26 0 0 Z " fill="#969696" transform="translate(383,212)"/>
<path d="M0 0 C0.33 0 0.66 0 1 0 C1 5.28 1 10.56 1 16 C-1.64 16 -4.28 16 -7 16 C-7 26.23 -7 36.46 -7 47 C-4.69 47 -2.38 47 0 47 C0 47.33 0 47.66 0 48 C-2.31 48 -4.62 48 -7 48 C-7 52.95 -7 57.9 -7 63 C-7.33 63 -7.66 63 -8 63 C-8 58.05 -8 53.1 -8 48 C-10.31 48 -12.62 48 -15 48 C-15 47.67 -15 47.34 -15 47 C-12.69 47 -10.38 47 -8 47 C-8 36.44 -8 25.88 -8 15 C-5.36 15 -2.72 15 0 15 C0 10.05 0 5.1 0 0 Z " fill="#939292" transform="translate(250,204)"/>
<path d="M0 0 C0.33 1.32 0.66 2.64 1 4 C3.31 4 5.62 4 8 4 C8 6.64 8 9.28 8 12 C5.36 12 2.72 12 0 12 C0 8.04 0 4.08 0 0 Z " fill="#29292B" transform="translate(360,184)"/>
<path d="M0 0 C2.64 0 5.28 0 8 0 C8 2.64 8 5.28 8 8 C5.36 8 2.72 8 0 8 C0 5.36 0 2.72 0 0 Z " fill="#E0E0E0" transform="translate(391,362)"/>
<path d="M0 0 C2.64 0 5.28 0 8 0 C8 2.64 8 5.28 8 8 C5.36 8 2.72 8 0 8 C0 5.36 0 2.72 0 0 Z " fill="#B45C7C" transform="translate(266,354)"/>
<path d="M0 0 C2.64 0 5.28 0 8 0 C8 2.64 8 5.28 8 8 C5.36 8 2.72 8 0 8 C0 5.36 0 2.72 0 0 Z " fill="#2C2C2C" transform="translate(227,338)"/>
<path d="M0 0 C2.64 0 5.28 0 8 0 C8 2.64 8 5.28 8 8 C5.36 8 2.72 8 0 8 C0 5.36 0 2.72 0 0 Z " fill="#B35E7C" transform="translate(360,291)"/>
<path d="M0 0 C2.64 0 5.28 0 8 0 C8 2.64 8 5.28 8 8 C5.36 8 2.72 8 0 8 C0 5.36 0 2.72 0 0 Z " fill="#AD6580" transform="translate(282,291)"/>
<path d="M0 0 C2.64 0 5.28 0 8 0 C8 2.64 8 5.28 8 8 C5.36 8 2.72 8 0 8 C0 5.36 0 2.72 0 0 Z " fill="#2A2829" transform="translate(368,267)"/>
<path d="M0 0 C2.64 0 5.28 0 8 0 C8 2.64 8 5.28 8 8 C5.36 8 2.72 8 0 8 C0 5.36 0 2.72 0 0 Z " fill="#B45B7C" transform="translate(329,259)"/>
<path d="M0 0 C2.64 0 5.28 0 8 0 C8 2.64 8 5.28 8 8 C5.36 8 2.72 8 0 8 C0 5.36 0 2.72 0 0 Z " fill="#D9D9D9" transform="translate(219,251)"/>
<path d="M0 0 C2.64 0 5.28 0 8 0 C8 2.64 8 5.28 8 8 C5.36 8 2.72 8 0 8 C0 5.36 0 2.72 0 0 Z " fill="#D1D0D2" transform="translate(227,243)"/>
<path d="M0 0 C2.64 0 5.28 0 8 0 C8 2.64 8 5.28 8 8 C5.36 8 2.72 8 0 8 C0 5.36 0 2.72 0 0 Z " fill="#EC739F" transform="translate(360,243)"/>
<path d="M0 0 C2.64 0 5.28 0 8 0 C8 2.64 8 5.28 8 8 C5.36 8 2.72 8 0 8 C0 5.36 0 2.72 0 0 Z " fill="#EA739C" transform="translate(258,243)"/>
<path d="M0 0 C2.64 0 5.28 0 8 0 C8 2.64 8 5.28 8 8 C5.36 8 2.72 8 0 8 C0 5.36 0 2.72 0 0 Z " fill="#FAB8D1" transform="translate(360,228)"/>
<path d="M0 0 C0.99 0.495 0.99 0.495 2 1 C2 2.65 2 4.3 2 6 C8.6 6 15.2 6 22 6 C22 4.02 22 2.04 22 0 C22.33 0 22.66 0 23 0 C23 2.64 23 5.28 23 8 C15.41 8 7.82 8 0 8 C0 5.36 0 2.72 0 0 Z " fill="#A6607C" transform="translate(266,267)"/>
<path d="M0 0 C2.33294775 -0.04241723 4.66702567 -0.04092937 7 0 C8 1 8 1 8.0625 4.5625 C8.041875 5.696875 8.02125 6.83125 8 8 C5.36 8 2.72 8 0 8 C0 5.36 0 2.72 0 0 Z " fill="#EC759F" transform="translate(329,251)"/>
<path d="M0 0 C1.125 5.625 1.125 5.625 0 9 C-2.31 9 -4.62 9 -7 9 C-7 6.36 -7 3.72 -7 1 C-2.25 0 -2.25 0 0 0 Z " fill="#1D1C24" transform="translate(407,250)"/>
<path d="M0 0 C2.64 0 5.28 0 8 0 C8 2.31 8 4.62 8 7 C5.36 7 2.72 7 0 7 C0 4.69 0 2.38 0 0 Z " fill="#B45879" transform="translate(274,362)"/>
<path d="M0 0 C2.64 0 5.28 0 8 0 C8 2.31 8 4.62 8 7 C5.36 7 2.72 7 0 7 C0 4.69 0 2.38 0 0 Z " fill="#202023" transform="translate(211,315)"/>
<path d="M0 0 C2.64 0 5.28 0 8 0 C8 2.31 8 4.62 8 7 C5.36 7 2.72 7 0 7 C0 4.69 0 2.38 0 0 Z " fill="#B25778" transform="translate(250,307)"/>
<path d="M0 0 C2.64 0 5.28 0 8 0 C8 2.31 8 4.62 8 7 C5.36 7 2.72 7 0 7 C0 4.69 0 2.38 0 0 Z " fill="#B45779" transform="translate(227,307)"/>
<path d="M0 0 C2.31 0 4.62 0 7 0 C7 2.64 7 5.28 7 8 C4.69 8 2.38 8 0 8 C0 5.36 0 2.72 0 0 Z " fill="#B05978" transform="translate(384,291)"/>
<path d="M0 0 C2.31 0 4.62 0 7 0 C7 2.64 7 5.28 7 8 C4.69 8 2.38 8 0 8 C0 5.36 0 2.72 0 0 Z " fill="#AC5C7A" transform="translate(329,283)"/>
<path d="M0 0 C2.31 0 4.62 0 7 0 C7 2.64 7 5.28 7 8 C4.69 8 2.38 8 0 8 C0 5.36 0 2.72 0 0 Z " fill="#AD5B79" transform="translate(290,283)"/>
<path d="M0 0 C2.31 0 4.62 0 7 0 C7 2.64 7 5.28 7 8 C4.69 8 2.38 8 0 8 C0 5.36 0 2.72 0 0 Z " fill="#AF5B7A" transform="translate(251,283)"/>
<path d="M0 0 C2.64 0 5.28 0 8 0 C8 2.31 8 4.62 8 7 C5.36 7 2.72 7 0 7 C0 4.69 0 2.38 0 0 Z " fill="#A95E7D" transform="translate(360,220)"/>
<path d="M0 0 C2.64 0 5.28 0 8 0 C8 2.31 8 4.62 8 7 C5.36 7 2.72 7 0 7 C0 4.69 0 2.38 0 0 Z " fill="#AD5B79" transform="translate(258,220)"/>
<path d="M0 0 C4.29 0 8.58 0 13 0 C13 1.32 13 2.64 13 4 C8.71 4 4.42 4 0 4 C0 2.68 0 1.36 0 0 Z " fill="#B7587B" transform="translate(236,277)"/>
<path d="M0 0 C2.31 0 4.62 0 7 0 C7 2.31 7 4.62 7 7 C4.69 7 2.38 7 0 7 C0 4.69 0 2.38 0 0 Z " fill="#1A1819" transform="translate(392,331)"/>
<path d="M0 0 C2.31 0 4.62 0 7 0 C7 2.31 7 4.62 7 7 C4.69 7 2.38 7 0 7 C0 4.69 0 2.38 0 0 Z " fill="#1B1B1B" transform="translate(400,323)"/>
<path d="M0 0 C2.31 0 4.62 0 7 0 C7 2.31 7 4.62 7 7 C4.69 7 2.38 7 0 7 C0 4.69 0 2.38 0 0 Z " fill="#B05679" transform="translate(345,323)"/>
<path d="M0 0 C2.31 0 4.62 0 7 0 C7 2.31 7 4.62 7 7 C4.69 7 2.38 7 0 7 C0 4.69 0 2.38 0 0 Z " fill="#AF5579" transform="translate(384,315)"/>
<path d="M0 0 C2.31 0 4.62 0 7 0 C7 2.31 7 4.62 7 7 C4.69 7 2.38 7 0 7 C0 4.69 0 2.38 0 0 Z " fill="#B15578" transform="translate(361,315)"/>
<path d="M0 0 C2.31 0 4.62 0 7 0 C7 2.31 7 4.62 7 7 C4.69 7 2.38 7 0 7 C0 4.69 0 2.38 0 0 Z " fill="#EE719D" transform="translate(384,307)"/>
<path d="M0 0 C2.31 0 4.62 0 7 0 C7 2.31 7 4.62 7 7 C4.69 7 2.38 7 0 7 C0 4.69 0 2.38 0 0 Z " fill="#FCBCD5" transform="translate(227,291)"/>
<path d="M0 0 C2.31 0 4.62 0 7 0 C7 2.31 7 4.62 7 7 C4.69 7 2.38 7 0 7 C0 4.69 0 2.38 0 0 Z " fill="#AA5A78" transform="translate(227,283)"/>
<path d="M0 0 C2.31 0 4.62 0 7 0 C7 2.31 7 4.62 7 7 C4.69 7 2.38 7 0 7 C0 4.69 0 2.38 0 0 Z " fill="#E1E2E2" transform="translate(212,268)"/>
<path d="M0 0 C2.31 0 4.62 0 7 0 C7 2.31 7 4.62 7 7 C4.69 7 2.38 7 0 7 C0 4.69 0 2.38 0 0 Z " fill="#AF5878" transform="translate(290,260)"/>
<path d="M0 0 C2.31 0 4.62 0 7 0 C7 2.31 7 4.62 7 7 C4.69 7 2.38 7 0 7 C0 4.69 0 2.38 0 0 Z " fill="#FCBCD4" transform="translate(259,228)"/>
<path d="M0 0 C2.31 0 4.62 0 7 0 C7 2.31 7 4.62 7 7 C4.69 7 2.38 7 0 7 C0 4.69 0 2.38 0 0 Z " fill="#AA5777" transform="translate(329,220)"/>
<path d="M0 0 C2.31 0 4.62 0 7 0 C7 2.31 7 4.62 7 7 C4.69 7 2.38 7 0 7 C0 4.69 0 2.38 0 0 Z " fill="#1D1D1C" transform="translate(306,196)"/>
<path d="M0 0 C2.31 0 4.62 0 7 0 C7 2.31 7 4.62 7 7 C4.69 7 2.38 7 0 7 C0 4.69 0 2.38 0 0 Z " fill="#1F1F20" transform="translate(369,196)"/>
<path d="M0 0 C0.33 0 0.66 0 1 0 C1 7.59 1 15.18 1 23 C3.31 23 5.62 23 8 23 C8 23.33 8 23.66 8 24 C5.69 24 3.38 24 1 24 C1 26.31 1 28.62 1 31 C0.67 31 0.34 31 0 31 C0 28.69 0 26.38 0 24 C-2.31 24 -4.62 24 -7 24 C-7 23.67 -7 23.34 -7 23 C-4.69 23 -2.38 23 0 23 C0 15.41 0 7.82 0 0 Z " fill="#D489A5" transform="translate(391,291)"/>
<path d="M0 0 C2.31 0 4.62 0 7 0 C6.03320312 0.30550781 6.03320312 0.30550781 5.046875 0.6171875 C2.68846128 1.8667935 2.68846128 1.8667935 2.390625 4.8203125 C2.34421875 5.91085937 2.2978125 7.00140625 2.25 8.125 C2.19328125 9.22070312 2.1365625 10.31640625 2.078125 11.4453125 C2.05234375 12.28835938 2.0265625 13.13140625 2 14 C3.65 14 5.3 14 7 14 C7 14.33 7 14.66 7 15 C4.69 15 2.38 15 0 15 C0 10.05 0 5.1 0 0 Z " fill="#A45F79" transform="translate(219,291)"/>
<path d="M0 0 C0.33 0 0.66 0 1 0 C1 3.63 1 7.26 1 11 C3.31 11 5.62 11 8 11 C8 11.33 8 11.66 8 12 C5.69 12 3.38 12 1 12 C1 16.95 1 21.9 1 27 C0.67 27 0.34 27 0 27 C0 22.05 0 17.1 0 12 C-2.31 12 -4.62 12 -7 12 C-7 11.67 -7 11.34 -7 11 C-4.69 11 -2.38 11 0 11 C0 7.37 0 3.74 0 0 Z " fill="#8B8B8B" transform="translate(242,240)"/>
<path d="M0 0 C1.32 0 2.64 0 4 0 C4.33 1.98 4.66 3.96 5 6 C2.69 6 0.38 6 -2 6 C-1.125 1.125 -1.125 1.125 0 0 Z " fill="#EE729C" transform="translate(363,308)"/>
<path d="M0 0 C1.65 0 3.3 0 5 0 C5 1.65 5 3.3 5 5 C3.35 5 1.7 5 0 5 C0 3.35 0 1.7 0 0 Z " fill="#B25979" transform="translate(283,292)"/>
<path d="M0 0 C1.65 0 3.3 0 5 0 C5 1.65 5 3.3 5 5 C3.35 5 1.7 5 0 5 C0 3.35 0 1.7 0 0 Z " fill="#B3577B" transform="translate(362,221)"/>
<path d="M0 0 C4.95 0 9.9 0 15 0 C15 0.33 15 0.66 15 1 C13.75283203 1.05607422 13.75283203 1.05607422 12.48046875 1.11328125 C11.39378906 1.17902344 10.30710937 1.24476563 9.1875 1.3125 C7.56908203 1.39951172 7.56908203 1.39951172 5.91796875 1.48828125 C2.82502483 2.03068507 1.86977097 2.55289624 0 5 C0 3.35 0 1.7 0 0 Z " fill="#D5799B" transform="translate(345,330)"/>
</svg>
